<svg xmlns="http://www.w3.org/2000/svg" viewBox="0 0 127 127"><defs><style>.cls-1{isolation:isolate;}.cls-2{mix-blend-mode:multiply;}.cls-10,.cls-3{fill:#fff;}.cls-4{fill:#c8d6bd;}.cls-5{fill:#64bc31;}.cls-6,.cls-7{fill:none;}.cls-6,.cls-7,.cls-8{stroke:#000;}.cls-10,.cls-11,.cls-12,.cls-6,.cls-7,.cls-8{stroke-linecap:round;stroke-linejoin:round;}.cls-6{stroke-width:4px;}.cls-7{stroke-width:2px;}.cls-9{opacity:0.36;}.cls-10{stroke:#fff;}.cls-11{fill:#e33732;stroke:#e33732;}.cls-12{fill:#f2cd64;stroke:#f2cd64;}</style></defs><title>joker</title><g class="cls-1"><g id="icons" class="cls-2"><g id="_Group_" data-name="&lt;Group&gt;"><path class="cls-3" d="M103.45,77.38c.04,1.39.05,2.76.05,4.12,0,24.85-10,35-40,35-29.64,0-39.75-9.92-39.99-34.13-.01,0-.03-1.23-.08-3.34h.08v-.07a2.26,2.26,0,0,0,.01-.26l.99.01C24.62,54.38,38.53,39.5,46.5,39.5c0,0,1,3-2,7,0,0,9,1,18-12,0,0,6,5,3,10,0,0,11-3,13-9,0,0,23.26,8.71,23.98,41.9Z"/><path class="cls-4" d="M63.5,106.5c-28.366,0-38.846-9.08-39.9-31.078-.066,2.047-.1,4.08-.1,6.078,0,24.853,10,35,40,35s40-10.147,40-35c0-2-.03-4.03-.1-6.078C102.346,97.42,91.866,106.5,63.5,106.5Z"/><path class="cls-5" d="M103.5,58.5V79c0-1.19-.04-2.35-.09-3.47.02.62.03,1.23.04,1.85l-.97.02C101.76,44.21,78.5,35.5,78.5,35.5c-2,6-13,9-13,9,3-5-3-10-3-10-9,13-18,12-18,12,3-4,2-7,2-7-7.97,0-21.88,14.88-21.99,39.21l-.99-.01a2.26,2.26,0,0,1-.01.26v.07h-.08C23.2,68.75,22.39,37.61,19.5,27.5c0,0,11-5,18,2,0,0,4-10,12-12,0,0-1,7,3,9,0,0,8-16,27-12,0,0-5,6-3,11,0,0,20-12,37-3A70.6,70.6,0,0,0,103.5,58.5Z"/><path class="cls-6" d="M23.51,82.26v.11c.24,24.21,10.35,34.13,39.99,34.13,30,0,40-10.15,40-35,0-1.36-.01-2.73-.05-4.12-.01-.62-.02-1.23-.04-1.85.05,1.12.09,2.28.09,3.47V58.5a70.6,70.6,0,0,1,10-36c-17-9-37,3-37,3-2-5,3-11,3-11-19-4-27,12-27,12-4-2-3-9-3-9-8,2-12,12-12,12-7-7-18-2-18-2,2.89,10.11,3.7,41.25,3.93,51.53.05,2.11.07,3.34.08,3.34"/><path class="cls-6" d="M23.51,79.03v-.07a2.26,2.26,0,0,0,.01-.26"/><path class="cls-7" d="M24.51,79v-.29C24.62,54.38,38.53,39.5,46.5,39.5c0,0,1,3-2,7,0,0,9,1,18-12,0,0,6,5,3,10,0,0,11-3,13-9,0,0,23.26,8.71,23.98,41.9.01.53.02,1.06.02,1.6"/></g><path class="cls-8" d="M58,68.865C50,60,40.86,67.991,38.844,61,34.811,73.235,45.9,81.1,58,68.865Z"/><path class="cls-8" d="M69,68.865C77,60,86.14,67.991,88.156,61,92.189,73.235,81.1,81.1,69,68.865Z"/><g class="cls-9"><path d="M43.911,58.363a12.434,12.434,0,0,1,3.369-.609,15.471,15.471,0,0,1,3.429.206,12.524,12.524,0,0,1,3.311,1.068,9.187,9.187,0,0,1,2.793,2.082.505.505,0,0,1-.587.8l-.038-.018A24.159,24.159,0,0,0,53.33,60.68a22.287,22.287,0,0,0-2.977-.755,43.481,43.481,0,0,0-6.265-.577h-.033a.505.505,0,0,1-.145-.983Z"/></g><g class="cls-9"><path d="M82.911,59.347a43.481,43.481,0,0,0-6.265.577,22.287,22.287,0,0,0-2.977.755,24.159,24.159,0,0,0-2.858,1.211l-.037.018a.505.505,0,0,1-.587-.8,9.187,9.187,0,0,1,2.793-2.082,12.524,12.524,0,0,1,3.311-1.068,15.471,15.471,0,0,1,3.429-.206,12.434,12.434,0,0,1,3.369.609.505.505,0,0,1-.144.983Z"/></g><path class="cls-10" d="M46.011,71.661a12.41,12.41,0,0,1,2.972-1.955c0-.069.017-.136.017-.206A2.292,2.292,0,0,0,47,67a2.292,2.292,0,0,0-2,2.5A2.644,2.644,0,0,0,46.011,71.661Z"/><path class="cls-10" d="M80.989,71.661a12.41,12.41,0,0,0-2.972-1.955c0-.069-.017-.136-.017-.206a2.05,2.05,0,1,1,4,0A2.644,2.644,0,0,1,80.989,71.661Z"/><path class="cls-11" d="M63.5,89.315c10.214,0,18.571-7.1,26-4.057C83.464,90,83.464,102.5,63.5,102.5S44.464,90,37.5,85.258C44.929,82.215,53.286,89.315,63.5,89.315Z"/><path class="cls-12" d="M77.394,94.934c-4.068,1.351-8.676,2.881-13.894,2.881s-9.824-1.53-13.889-2.879l-.825-.272c2.755,2.808,6.8,4.836,14.713,4.836,8.026,0,12.3-2.127,15.171-4.988C78.249,94.65,77.825,94.79,77.394,94.934Z"/><path class="cls-12" d="M45.667,90.594c1.564.391,3.189.93,4.885,1.493,3.854,1.279,8.216,2.728,12.948,2.728s9.1-1.449,12.945-2.728c1.869-.621,3.657-1.212,5.369-1.607q.457-.706.9-1.415c.293-.469.589-.941.893-1.41A43.4,43.4,0,0,0,76.92,89.51c-3.958,1.314-8.444,2.8-13.42,2.8s-9.462-1.49-13.421-2.8a47.541,47.541,0,0,0-6.265-1.785c.429.634.838,1.278,1.244,1.916Q45.363,90.12,45.667,90.594Z"/><g class="cls-9"><path d="M93.354,81.646a3.737,3.737,0,0,1,1.389,1.371,3.988,3.988,0,0,1,.578,1.97,3.724,3.724,0,0,1-1.968,3.366.519.519,0,0,1-.733-.639l.026-.068a12.59,12.59,0,0,0,.526-1.383,3.531,3.531,0,0,0,.154-1.223,5.315,5.315,0,0,0-.208-1.274c-.124-.441-.312-.931-.471-1.413l-.032-.1a.514.514,0,0,1,.739-.611Z"/></g><g class="cls-9"><path d="M34.354,82.354c-.16.482-.347.972-.471,1.413a5.315,5.315,0,0,0-.208,1.274,3.531,3.531,0,0,0,.154,1.223,12.59,12.59,0,0,0,.526,1.383l.025.066a.519.519,0,0,1-.732.642,3.724,3.724,0,0,1-1.968-3.366,3.988,3.988,0,0,1,.578-1.97,3.737,3.737,0,0,1,1.389-1.371.514.514,0,0,1,.74.609Z"/></g></g></g></svg>