<svg xmlns="http://www.w3.org/2000/svg" viewBox="0 0 128 128"><defs><style>.cls-1{isolation:isolate;}.cls-2{mix-blend-mode:multiply;}.cls-3{fill:#966250;}.cls-4{fill:#7c473a;}.cls-5,.cls-9{fill:none;}.cls-5,.cls-6,.cls-9{stroke:#000;}.cls-5,.cls-6,.cls-8,.cls-9{stroke-linecap:round;stroke-linejoin:round;}.cls-5{stroke-width:2px;}.cls-7{opacity:0.36;}.cls-8{fill:#fff;stroke:#fff;}.cls-9{stroke-width:4px;}</style></defs><title>nick-fury</title><g class="cls-1"><g id="icons" class="cls-2"><path class="cls-3" d="M104,82c0,24.85-10,35-40,35S24,106.85,24,82s4-55,40-55S104,57.15,104,82Z"/><path class="cls-4" d="M103.99,79.5V72.715c0,.239,0,.48-.01.715-.35,22.38-9.27,32.25-34.45,33.44-1.76.09-3.6.13-5.53.13a79.688,79.688,0,0,1-17.83-1.69C30.183,101.6,24.219,91.544,24.01,73.02v7.67c0,.44-.01.88-.01,1.31,0,19.18,5.89,29.53,22.17,33.31A79.688,79.688,0,0,0,64,117c1.93,0,3.77-.04,5.53-.13,25.18-1.19,34.1-11.06,34.45-33.44.02-.47.02-.95.02-1.43,0-.44-.01-.89-.01-1.33Z"/><path class="cls-5" d="M102.32,60H72a20.929,20.929,0,0,1-2.37-.14c-6.59-.7-13.21-4.15-17.11-6.53a15.947,15.947,0,0,1-5.36-5.35L39,34.57"/><path class="cls-6" d="M94.5,68c0,5.8-6.04,10.5-13.5,10.5S67.5,73.8,67.5,68c0-3.81.24-6.46,2.13-8.14A20.923,20.923,0,0,0,72,60H92.52C94.28,61.68,94.5,64.29,94.5,68Z"/><circle class="cls-6" cx="47" cy="69" r="5.5"/><g class="cls-7"><path d="M41.918,58.507a10.441,10.441,0,0,1,3.3-.438,13.939,13.939,0,0,1,3.284.424,12.68,12.68,0,0,1,5.776,3.091.508.508,0,0,1-.53.841l-.025-.009c-.984-.366-1.9-.779-2.853-1.1-.939-.35-1.895-.632-2.856-.887a28.172,28.172,0,0,0-2.934-.6c-.985-.154-2.014-.26-3-.331l-.049,0a.5.5,0,0,1-.116-.983Z"/></g><ellipse class="cls-8" cx="47" cy="69" rx="2.5" ry="1.5"/><path class="cls-6" d="M64,87.5c-15.42,0-21.29,17.6-15.03,28.36A86.624,86.624,0,0,0,64,117a86.624,86.624,0,0,0,15.03-1.14C85.29,105.1,79.42,87.5,64,87.5Zm6.908,24.951-3.137-.886a13.872,13.872,0,0,0-7.542,0l-3.137.886a4.257,4.257,0,0,1-5.338-3.3A15.867,15.867,0,0,1,52.87,99.8a12.135,12.135,0,0,1,22.26,0,15.867,15.867,0,0,1,1.116,9.349A4.257,4.257,0,0,1,70.908,112.451Z"/><path class="cls-6" d="M58.5,102.665A11.515,11.515,0,0,0,69.406,100.5C70.5,104.83,61.772,108.077,58.5,102.665Z"/><path class="cls-9" d="M104,82c0,24.85-10,35-40,35S24,106.85,24,82s4-55,40-55S104,57.15,104,82Z"/><g class="cls-7"><path d="M72.788,50.091a12.477,12.477,0,0,1,3.741,3.644,18.019,18.019,0,0,1,2.153,4.755,73.213,73.213,0,0,1,1.78,9.965,45.883,45.883,0,0,0,2.129,9.532A23.044,23.044,0,0,0,87.7,86.129a.5.5,0,0,1-.671.742,20.8,20.8,0,0,1-3.565-3.713,23.243,23.243,0,0,1-2.542-4.513,38.3,38.3,0,0,1-2.433-9.917A92.316,92.316,0,0,0,77,58.953a14.2,14.2,0,0,0-4.784-8.044.5.5,0,0,1,.57-.821Z"/><path d="M81.162,51.1c.431.563.859,1.136,1.277,1.721.354.621.708,1.251,1.044,1.89.26.669.553,1.337.761,2.024.173.693.423,1.384.53,2.086.581,2.808.629,5.6.949,8.28a26.075,26.075,0,0,0,1.936,7.705,23.039,23.039,0,0,0,1.89,3.521c.641,1.19,1.557,2.2,2.319,3.333l.032.048a.5.5,0,0,1-.769.628q-.74-.748-1.459-1.525a14.581,14.581,0,0,1-1.361-1.628,24.682,24.682,0,0,1-2.276-3.622,23.491,23.491,0,0,1-2.291-8.235c-.3-2.811-.324-5.561-.689-8.2a18.027,18.027,0,0,0-2.7-7.428l-.014-.022a.5.5,0,0,1,.817-.574Z"/></g></g></g></svg>